<svg width="158" height="77" viewBox="0 0 158 77" fill="none" xmlns="http://www.w3.org/2000/svg">
<g filter="url(#filter0_d_1388_6831)">
<path d="M10 8H148V65L79 55.5L10 65V8Z" fill="white"/>
</g>
<ellipse cx="118.746" cy="33.6042" rx="18.7457" ry="18.6042" fill="#669E65"/>
<mask id="mask0_1388_6831" style="mask-type:alpha" maskUnits="userSpaceOnUse" x="100" y="15" width="38" height="38">
<ellipse cx="118.746" cy="33.6042" rx="18.7457" ry="18.6042" fill="#669E65"/>
</mask>
<g mask="url(#mask0_1388_6831)">
<path d="M109.572 22.1247C103.168 23.184 100 26.4789 98.8036 32.4166C95.6129 41.9166 99.6013 43.104 107.578 50.229C115.555 57.354 127.919 53.3957 133.503 46.6665C139.087 39.9374 139.884 30.8332 139.087 26.479C138.449 22.9957 133.503 14.7359 130.312 11.0415C126.058 10.5137 113.96 13.0204 111.168 15.7914C115.156 15.3956 116.752 20.9373 109.572 22.1247Z" fill="#518950"/>
<path d="M103.589 30.0415C98.6137 33.6079 98.1386 41.3889 98.8033 45.8751C101.728 47.5903 109.811 51.6541 118.746 54.1874C129.913 57.3541 137.491 42.3124 138.688 39.1457C139.884 35.9791 139.087 23.3126 135.896 18.5626C132.705 13.8126 113.129 13.9772 114.757 14.2081C120.341 15 124.457 20.0685 120.341 24.8959C115.953 30.0415 110.768 24.8957 103.589 30.0415Z" fill="#B9467D"/>
<g filter="url(#filter1_d_1388_6831)">
<path d="M108.376 34.3961C104.228 37.8794 103.058 43.3683 104.786 46.6669L112.763 53.3959C119.277 54.1876 134.221 55.2959 141.878 53.3959C151.451 51.0209 138.688 26.4791 138.688 22.9166C138.688 19.3541 113.959 6.68774 122.335 13.8127C130.711 20.9377 127.382 26.4478 123.93 29.2502C119.543 32.8127 113.561 30.0419 108.376 34.3961Z" fill="#D74E8F"/>
</g>
<path d="M110.805 43.2814C109.528 47.7148 111.204 51.5939 113.995 55.1566C119.313 53.8371 130.747 50.4857 133.938 47.6357C137.926 44.0732 138.724 35.7607 137.128 27.4482C135.533 19.1357 124.365 7.65675 130.348 16.7609C136.331 25.8651 128.354 34.1776 121.573 35.7609C114.939 37.3101 112.4 37.7398 110.805 43.2814Z" fill="#FFC46B"/>
<path d="M117.549 43.1042C113.805 46.5529 115.805 51.6547 116.415 53.1296C120.77 54.0823 132.139 55.2936 141.363 47.7114C152.893 38.2338 132.289 6.83921 134.679 23.6987C137.093 40.7294 122.705 38.3542 117.549 43.1042Z" fill="#4A67D0"/>
<path d="M122.335 47.0626C121.473 49.6293 121.937 51.4167 125.127 52.6042C125.659 52.6042 126.244 52.05 130.711 51.4167C136.295 50.625 139.332 26.5649 137.89 34.7916C136.295 43.8959 123.931 42.3126 122.335 47.0626Z" fill="#7D99FE"/>
</g>
<g filter="url(#filter2_d_1388_6831)">
<path d="M113.391 27.2178C113.995 27.2178 114.545 27.3057 115.043 27.4814C115.542 27.6572 115.966 27.9092 116.318 28.2373C116.675 28.5596 116.951 28.9492 117.144 29.4062C117.343 29.8633 117.443 30.3701 117.443 30.9268C117.443 31.4072 117.373 31.8525 117.232 32.2627C117.091 32.667 116.901 33.0566 116.661 33.4316C116.426 33.8008 116.151 34.1611 115.834 34.5127C115.518 34.8584 115.184 35.21 114.833 35.5674L111.897 38.5645C112.19 38.4824 112.474 38.418 112.75 38.3711C113.025 38.3242 113.289 38.3008 113.541 38.3008H116.88C117.121 38.3008 117.311 38.3711 117.452 38.5117C117.592 38.6465 117.663 38.8223 117.663 39.0391V40.375H108.733V39.6367C108.733 39.4844 108.765 39.3291 108.83 39.1709C108.894 39.0068 108.994 38.8574 109.128 38.7227L113.083 34.7588C113.412 34.4248 113.705 34.1055 113.962 33.8008C114.226 33.4902 114.446 33.1855 114.622 32.8867C114.797 32.5879 114.932 32.2832 115.026 31.9727C115.12 31.6621 115.167 31.3369 115.167 30.9971C115.167 30.6865 115.12 30.4141 115.026 30.1797C114.938 29.9395 114.809 29.7402 114.639 29.582C114.475 29.418 114.276 29.2949 114.042 29.2129C113.813 29.1309 113.555 29.0898 113.268 29.0898C112.735 29.0898 112.295 29.2246 111.95 29.4941C111.604 29.7637 111.364 30.127 111.229 30.584C111.159 30.8125 111.056 30.9766 110.921 31.0762C110.792 31.1758 110.628 31.2256 110.429 31.2256C110.335 31.2256 110.236 31.2168 110.13 31.1992L108.961 30.9883C109.049 30.3613 109.222 29.8135 109.48 29.3447C109.738 28.876 110.06 28.4834 110.447 28.167C110.833 27.8506 111.276 27.6133 111.774 27.4551C112.278 27.2969 112.817 27.2178 113.391 27.2178ZM126.891 35.4707H128.526V36.7539C128.526 36.877 128.488 36.9824 128.412 37.0703C128.335 37.1582 128.221 37.2021 128.069 37.2021H126.891V40.375H124.949V37.2021H119.456C119.309 37.2021 119.177 37.1553 119.06 37.0615C118.949 36.9678 118.878 36.8506 118.849 36.71L118.621 35.585L124.782 27.3496H126.891V35.4707ZM124.949 31.2168C124.949 31.0234 124.955 30.8154 124.966 30.5928C124.978 30.3701 124.999 30.1387 125.028 29.8984L120.985 35.4707H124.949V31.2168Z" fill="white"/>
</g>
<path d="M29.1363 32.8161L26.211 23.4344H26.143C26.1543 23.6577 26.1713 23.9928 26.194 24.4396C26.2167 24.8863 26.2393 25.3666 26.262 25.8803C26.2847 26.3829 26.296 26.8408 26.296 27.2541V32.8161H24V20.8544H27.5036L30.3779 30.0016H30.4289L33.4733 20.8544H36.9769V32.8161H34.5788V27.1535C34.5788 26.7738 34.5844 26.3382 34.5958 25.8468C34.6185 25.3554 34.6355 24.8919 34.6468 24.4563C34.6695 24.0096 34.6865 23.6745 34.6978 23.4511H34.6298L31.5004 32.8161H29.1363Z" fill="#141311"/>
<path d="M43.667 23.5014C44.9482 23.5014 45.963 23.8644 46.7114 24.5903C47.4597 25.3051 47.8339 26.3271 47.8339 27.6561V28.8624H41.8472C41.8698 29.566 42.0796 30.1188 42.4764 30.5209C42.8846 30.923 43.4459 31.124 44.1602 31.124C44.7611 31.124 45.3054 31.0682 45.7929 30.9565C46.2805 30.8336 46.7851 30.6493 47.3066 30.4036V32.3302C46.8531 32.5536 46.3712 32.7156 45.861 32.8161C45.3621 32.9278 44.7555 32.9836 44.0412 32.9836C43.1114 32.9836 42.2894 32.8161 41.575 32.481C40.8607 32.1348 40.2995 31.6154 39.8913 30.923C39.4831 30.2305 39.279 29.3594 39.279 28.3095C39.279 27.2373 39.4604 26.3494 39.8232 25.6458C40.1974 24.931 40.7133 24.3949 41.3709 24.0375C42.0286 23.6801 42.7939 23.5014 43.667 23.5014ZM43.684 25.2772C43.1964 25.2772 42.7883 25.4336 42.4594 25.7463C42.142 26.059 41.9549 26.5449 41.8982 27.2038H45.4528C45.4414 26.6454 45.294 26.1875 45.0106 25.8301C44.7271 25.4615 44.2849 25.2772 43.684 25.2772Z" fill="#141311"/>
<path d="M49.3275 27.3378C49.3275 25.3163 49.713 23.7471 50.484 22.6302C51.2664 21.5134 52.5533 20.7986 54.3447 20.4858C54.9457 20.3853 55.5523 20.3016 56.1646 20.2345C56.7882 20.1564 57.4288 20.0782 58.0864 20L58.3756 22.1779C57.9901 22.2226 57.5649 22.2728 57.1 22.3287C56.6464 22.3845 56.1929 22.4404 55.7394 22.4962C55.2972 22.5409 54.9003 22.5911 54.5488 22.647C53.9819 22.7363 53.5114 22.8759 53.1372 23.0658C52.763 23.2445 52.4739 23.5349 52.2698 23.937C52.0771 24.339 51.958 24.9198 51.9126 25.6793H52.0317C52.1678 25.4671 52.3548 25.2549 52.593 25.0427C52.8424 24.8305 53.1485 24.6518 53.5114 24.5066C53.8742 24.3614 54.2881 24.2888 54.7529 24.2888C55.8641 24.2888 56.7428 24.6238 57.3891 25.294C58.0467 25.9641 58.3756 26.9637 58.3756 28.2928C58.3756 29.3314 58.1828 30.197 57.7973 30.8895C57.4118 31.5819 56.8789 32.1069 56.1986 32.4643C55.5183 32.8105 54.7302 32.9836 53.8345 32.9836C52.4626 32.9836 51.3684 32.4978 50.552 31.5261C49.7357 30.5544 49.3275 29.1583 49.3275 27.3378ZM53.9876 30.9565C54.5205 30.9565 54.9514 30.7778 55.2802 30.4204C55.6203 30.063 55.7904 29.4264 55.7904 28.5105C55.7904 27.7846 55.6657 27.2094 55.4162 26.785C55.1781 26.3494 54.7586 26.1316 54.1577 26.1316C53.7948 26.1316 53.4547 26.221 53.1372 26.3997C52.8311 26.5672 52.5703 26.7626 52.3548 26.986C52.1394 27.1982 51.992 27.3825 51.9126 27.5389C51.9126 28.1085 51.975 28.6557 52.0997 29.1807C52.2245 29.7056 52.4342 30.1356 52.729 30.4707C53.0352 30.7945 53.4547 30.9565 53.9876 30.9565Z" fill="#141311"/>
<path d="M64.2954 23.5014C65.5767 23.5014 66.5915 23.8644 67.3398 24.5903C68.0881 25.3051 68.4623 26.3271 68.4623 27.6561V28.8624H62.4756C62.4983 29.566 62.708 30.1188 63.1049 30.5209C63.5131 30.923 64.0743 31.124 64.7886 31.124C65.3896 31.124 65.9338 31.0682 66.4214 30.9565C66.9089 30.8336 67.4135 30.6493 67.9351 30.4036V32.3302C67.4815 32.5536 66.9996 32.7156 66.4894 32.8161C65.9905 32.9278 65.3839 32.9836 64.6696 32.9836C63.7398 32.9836 62.9178 32.8161 62.2035 32.481C61.4892 32.1348 60.9279 31.6154 60.5197 30.923C60.1115 30.2305 59.9074 29.3594 59.9074 28.3095C59.9074 27.2373 60.0889 26.3494 60.4517 25.6458C60.8259 24.931 61.3418 24.3949 61.9994 24.0375C62.657 23.6801 63.4224 23.5014 64.2954 23.5014ZM64.3124 25.2772C63.8249 25.2772 63.4167 25.4336 63.0879 25.7463C62.7704 26.059 62.5833 26.5449 62.5266 27.2038H66.0812C66.0699 26.6454 65.9225 26.1875 65.639 25.8301C65.3556 25.4615 64.9134 25.2772 64.3124 25.2772Z" fill="#141311"/>
<path d="M78.8339 32.8161H76.2998V25.5453H73.9697C73.8223 27.3322 73.6239 28.773 73.3745 29.8675C73.1364 30.9509 72.8019 31.7439 72.371 32.2465C71.9402 32.7379 71.3619 32.9836 70.6362 32.9836C70.0466 32.9836 69.5647 32.8943 69.1906 32.7156V30.7219C69.4514 30.8336 69.7235 30.8895 70.0069 30.8895C70.211 30.8895 70.3981 30.789 70.5682 30.5879C70.7383 30.3869 70.897 30.0239 71.0444 29.499C71.2032 28.974 71.3449 28.2425 71.4696 27.3043C71.5943 26.355 71.7077 25.1432 71.8098 23.6689H78.8339V32.8161Z" fill="#141311"/>
<path d="M85.7991 27.2038C87.2277 27.2038 88.2822 27.4272 88.9625 27.8739C89.6542 28.3207 90 28.9964 90 29.901C90 30.7834 89.6825 31.4926 89.0476 32.0287C88.4126 32.5536 87.3638 32.8161 85.9011 32.8161H81.4792V23.6689H84.0133V27.2038H85.7991ZM87.4659 29.9346C87.4659 29.2644 86.8933 28.9294 85.7481 28.9294H84.0133V31.0905H85.7821C86.281 31.0905 86.6835 31.0012 86.9896 30.8225C87.3071 30.6438 87.4659 30.3478 87.4659 29.9346Z" fill="#141311"/>
<path d="M28.8634 39.9904C28.8634 40.3574 28.7506 40.6438 28.5249 40.8493C28.2992 41.0549 28.0096 41.1944 27.656 41.2678V41.3118C28.0321 41.3632 28.3594 41.4954 28.6377 41.7083C28.9161 41.9138 29.0552 42.2369 29.0552 42.6774C29.0552 43.1766 28.8634 43.5914 28.4797 43.9218C28.1036 44.2448 27.4792 44.4063 26.6066 44.4063H24V38.5037H26.5953C27.0241 38.5037 27.4078 38.5514 27.7463 38.6468C28.0923 38.7349 28.3631 38.8891 28.5587 39.1094C28.7618 39.3223 28.8634 39.6159 28.8634 39.9904ZM27.8591 40.1115C27.8591 39.8325 27.7538 39.6306 27.5432 39.5058C27.3401 39.3737 27.0053 39.3076 26.5389 39.3076H24.993V40.9264H26.3584C27.3589 40.9264 27.8591 40.6548 27.8591 40.1115ZM28.0284 42.6774C28.0284 42.3397 27.8967 42.0974 27.6334 41.9506C27.3702 41.8037 26.9827 41.7303 26.4712 41.7303H24.993V43.6244H26.4938C26.9903 43.6244 27.3702 43.5547 27.6334 43.4152C27.8967 43.2684 28.0284 43.0224 28.0284 42.6774Z" fill="#7B7976"/>
<path d="M35.7234 38.4046C36.4606 38.4046 37.006 38.5624 37.3595 38.8781C37.7131 39.1938 37.8899 39.6967 37.8899 40.3868V44.4063H37.1677L36.9759 43.5694H36.9308C36.6675 43.8924 36.3891 44.131 36.0957 44.2852C35.8099 44.4394 35.4112 44.5164 34.8996 44.5164C34.3505 44.5164 33.8954 44.377 33.5343 44.098C33.1732 43.8117 32.9926 43.3675 32.9926 42.7655C32.9926 42.1781 33.2296 41.7266 33.7035 41.4109C34.1775 41.0879 34.9072 40.9117 35.8926 40.8824L36.9195 40.8493V40.4969C36.9195 40.005 36.8104 39.6637 36.5922 39.4728C36.3741 39.2819 36.0656 39.1864 35.6669 39.1864C35.351 39.1864 35.0501 39.2342 34.7642 39.3296C34.4784 39.4177 34.2113 39.5205 33.9631 39.638L33.6584 38.9111C33.9217 38.7716 34.2339 38.6542 34.595 38.5587C34.9561 38.456 35.3322 38.4046 35.7234 38.4046ZM36.0167 41.5541C35.2645 41.5835 34.7417 41.7009 34.4483 41.9065C34.1624 42.1121 34.0195 42.4021 34.0195 42.7765C34.0195 43.1069 34.121 43.3491 34.3241 43.5033C34.5348 43.6575 34.8018 43.7346 35.1253 43.7346C35.6369 43.7346 36.0619 43.5987 36.4004 43.3271C36.7389 43.0481 36.9082 42.6223 36.9082 42.0497V41.5211L36.0167 41.5541Z" fill="#7B7976"/>
<path d="M42.6353 38.3936C43.3801 38.3936 43.9781 38.6468 44.4295 39.1534C44.8884 39.66 45.1178 40.4235 45.1178 41.444C45.1178 42.4498 44.8884 43.2133 44.4295 43.7346C43.9781 44.2558 43.3763 44.5164 42.6241 44.5164C42.1576 44.5164 41.7702 44.432 41.4618 44.2632C41.1609 44.087 40.9239 43.8851 40.7509 43.6575H40.6832C40.6983 43.7823 40.7133 43.9401 40.7283 44.131C40.7434 44.3219 40.7509 44.4871 40.7509 44.6266V47.0493H39.7579V38.5037H40.5704L40.7058 39.3076H40.7509C40.9315 39.0506 41.1684 38.8341 41.4618 38.6579C41.7552 38.4817 42.1464 38.3936 42.6353 38.3936ZM42.4548 39.2085C41.8379 39.2085 41.4016 39.3773 41.1459 39.715C40.8976 40.0528 40.766 40.5667 40.7509 41.2568V41.444C40.7509 42.1708 40.8713 42.7324 41.112 43.1289C41.3602 43.518 41.8154 43.7125 42.4774 43.7125C42.846 43.7125 43.1469 43.6134 43.3801 43.4152C43.6208 43.217 43.7976 42.949 43.9104 42.6113C44.0308 42.2662 44.091 41.8735 44.091 41.433C44.091 40.7575 43.9556 40.2179 43.6848 39.8142C43.4215 39.4104 43.0115 39.2085 42.4548 39.2085Z" fill="#7B7976"/>
<path d="M49.036 38.3936C49.5551 38.3936 49.9989 38.5037 50.3675 38.7239C50.7437 38.9442 51.0295 39.2562 51.2251 39.66C51.4282 40.0564 51.5298 40.5226 51.5298 41.0586V41.6422H47.3885C47.4036 42.3103 47.5766 42.8205 47.9076 43.1729C48.2461 43.518 48.7163 43.6905 49.3181 43.6905C49.7018 43.6905 50.0403 43.6575 50.3337 43.5914C50.6346 43.518 50.943 43.4152 51.259 43.2831V44.131C50.9505 44.2632 50.6459 44.3586 50.345 44.4173C50.044 44.4834 49.6867 44.5164 49.273 44.5164C48.7012 44.5164 48.1935 44.4026 47.7496 44.1751C47.3133 43.9475 46.971 43.6098 46.7228 43.1619C46.4821 42.7067 46.3617 42.1525 46.3617 41.499C46.3617 40.853 46.4708 40.2987 46.6889 39.8362C46.9146 39.3737 47.2268 39.0176 47.6255 38.768C48.0317 38.5184 48.5019 38.3936 49.036 38.3936ZM49.0247 39.1864C48.5508 39.1864 48.1747 39.3369 47.8963 39.638C47.6255 39.9316 47.4638 40.3427 47.4111 40.8713H50.4916C50.4841 40.3721 50.3638 39.9683 50.1306 39.66C49.8974 39.3443 49.5287 39.1864 49.0247 39.1864Z" fill="#7B7976"/>
<path d="M54.0625 38.5037V40.9594H57.3461V38.5037H58.3391V44.4063H57.3461V41.7744H54.0625V44.4063H53.0695V38.5037H54.0625Z" fill="#7B7976"/>
<path d="M64.7453 38.5037V43.5914H65.6254V46.4546H64.6663V44.4063H60.4573V46.4546H59.5095V43.5914H59.9947C60.5138 42.894 60.9012 42.1011 61.157 41.2127C61.4202 40.3171 61.5557 39.414 61.5632 38.5037H64.7453ZM62.4433 39.2635C62.4132 39.7628 62.3343 40.2803 62.2064 40.8163C62.0785 41.3449 61.913 41.8514 61.7099 42.336C61.5143 42.8205 61.2848 43.239 61.0216 43.5914H63.7861V39.2635H62.4433Z" fill="#7B7976"/>
<path d="M65.863 38.5037H66.9237L68.2326 41.8625C68.3455 42.1561 68.447 42.4388 68.5373 42.7104C68.6276 42.9747 68.6953 43.228 68.7404 43.4703H68.7856C68.8307 43.2867 68.9022 43.0481 68.9999 42.7545C69.0977 42.4535 69.1993 42.1525 69.3046 41.8514L70.5346 38.5037H71.6066L68.9999 45.2212C68.7893 45.7792 68.5147 46.2234 68.1762 46.5537C67.8452 46.8841 67.3863 47.0493 66.7996 47.0493C66.619 47.0493 66.4611 47.0383 66.3256 47.0163C66.1902 47.0016 66.0736 46.9832 65.9758 46.9612V46.1903C66.0586 46.205 66.1564 46.2197 66.2692 46.2344C66.3896 46.2491 66.5137 46.2564 66.6416 46.2564C66.9876 46.2564 67.266 46.161 67.4766 45.9701C67.6948 45.7792 67.864 45.5259 67.9844 45.2102L68.3003 44.4283L65.863 38.5037Z" fill="#7B7976"/>
<defs>
<filter id="filter0_d_1388_6831" x="0" y="0" width="158" height="77" filterUnits="userSpaceOnUse" color-interpolation-filters="sRGB">
<feFlood flood-opacity="0" result="BackgroundImageFix"/>
<feColorMatrix in="SourceAlpha" type="matrix" values="0 0 0 0 0 0 0 0 0 0 0 0 0 0 0 0 0 0 127 0" result="hardAlpha"/>
<feOffset dy="2"/>
<feGaussianBlur stdDeviation="5"/>
<feComposite in2="hardAlpha" operator="out"/>
<feColorMatrix type="matrix" values="0 0 0 0 0 0 0 0 0 0 0 0 0 0 0 0 0 0 0.05 0"/>
<feBlend mode="normal" in2="BackgroundImageFix" result="effect1_dropShadow_1388_6831"/>
<feBlend mode="normal" in="SourceGraphic" in2="effect1_dropShadow_1388_6831" result="shape"/>
</filter>
<filter id="filter1_d_1388_6831" x="94.0151" y="3.67432" width="61.4233" height="62.7705" filterUnits="userSpaceOnUse" color-interpolation-filters="sRGB">
<feFlood flood-opacity="0" result="BackgroundImageFix"/>
<feColorMatrix in="SourceAlpha" type="matrix" values="0 0 0 0 0 0 0 0 0 0 0 0 0 0 0 0 0 0 127 0" result="hardAlpha"/>
<feOffset dy="2"/>
<feGaussianBlur stdDeviation="5"/>
<feComposite in2="hardAlpha" operator="out"/>
<feColorMatrix type="matrix" values="0 0 0 0 0 0 0 0 0 0 0 0 0 0 0 0 0 0 0.05 0"/>
<feBlend mode="normal" in2="BackgroundImageFix" result="effect1_dropShadow_1388_6831"/>
<feBlend mode="normal" in="SourceGraphic" in2="effect1_dropShadow_1388_6831" result="shape"/>
</filter>
<filter id="filter2_d_1388_6831" x="100.733" y="19.2178" width="35.793" height="29.1572" filterUnits="userSpaceOnUse" color-interpolation-filters="sRGB">
<feFlood flood-opacity="0" result="BackgroundImageFix"/>
<feColorMatrix in="SourceAlpha" type="matrix" values="0 0 0 0 0 0 0 0 0 0 0 0 0 0 0 0 0 0 127 0" result="hardAlpha"/>
<feOffset/>
<feGaussianBlur stdDeviation="4"/>
<feComposite in2="hardAlpha" operator="out"/>
<feColorMatrix type="matrix" values="0 0 0 0 0 0 0 0 0 0 0 0 0 0 0 0 0 0 0.5 0"/>
<feBlend mode="normal" in2="BackgroundImageFix" result="effect1_dropShadow_1388_6831"/>
<feBlend mode="normal" in="SourceGraphic" in2="effect1_dropShadow_1388_6831" result="shape"/>
</filter>
</defs>
</svg>
