<svg width="24" height="24" viewBox="0 0 24 24" fill="none" xmlns="http://www.w3.org/2000/svg">
<g clip-path="url(#clip0_1684_8149)">
<path d="M18 12C16.9464 12.0012 15.9111 11.7247 14.9984 11.1982C14.0858 10.6717 13.328 9.91396 12.8016 9.00128C12.2752 8.08859 11.9987 7.05326 12 5.99965C12.0013 4.94604 12.2803 3.91139 12.809 3H4.242L4.2 2.648C4.11382 1.9186 3.76306 1.24615 3.21419 0.758104C2.66532 0.270054 1.95647 0.000312836 1.222 0L1 0C0.734784 0 0.48043 0.105357 0.292893 0.292893C0.105357 0.48043 0 0.734784 0 1C0 1.26522 0.105357 1.51957 0.292893 1.70711C0.48043 1.89464 0.734784 2 1 2H1.222C1.46693 2.00003 1.70334 2.08996 1.88637 2.25272C2.06941 2.41547 2.18634 2.63975 2.215 2.883L3.591 14.583C3.73385 15.7998 4.31848 16.9218 5.23391 17.736C6.14934 18.5502 7.33185 19 8.557 19H19C19.2652 19 19.5196 18.8946 19.7071 18.7071C19.8946 18.5196 20 18.2652 20 18C20 17.7348 19.8946 17.4804 19.7071 17.2929C19.5196 17.1054 19.2652 17 19 17H8.557C7.93788 16.9985 7.33441 16.8054 6.82934 16.4473C6.32428 16.0893 5.94237 15.5837 5.736 15H17.657C18.8293 15.0001 19.9643 14.5882 20.8638 13.8364C21.7633 13.0846 22.37 12.0407 22.578 10.887L22.816 9.568C22.2597 10.3222 21.5341 10.9351 20.6976 11.3576C19.8611 11.78 18.9371 12 18 12Z" fill="#518950"/>
<path d="M7 24.0005C8.10456 24.0005 8.99999 23.1051 8.99999 22.0005C8.99999 20.8959 8.10456 20.0005 7 20.0005C5.89543 20.0005 5 20.8959 5 22.0005C5 23.1051 5.89543 24.0005 7 24.0005Z" fill="#518950"/>
<path d="M17 24.0005C18.1046 24.0005 19 23.1051 19 22.0005C19 20.8959 18.1046 20.0005 17 20.0005C15.8954 20.0005 15 20.8959 15 22.0005C15 23.1051 15.8954 24.0005 17 24.0005Z" fill="#518950"/>
<path d="M15.7328 8.94559C15.9047 9.13134 16.1126 9.28028 16.3438 9.38341C16.575 9.48654 16.8247 9.54171 17.0778 9.54559H17.1108C17.3588 9.5464 17.6046 9.49794 17.8337 9.40301C18.0629 9.30808 18.271 9.16857 18.4458 8.99259L22.7178 4.72059C22.9062 4.53255 23.0122 4.27735 23.0125 4.01115C23.0128 3.74494 22.9073 3.48952 22.7193 3.30109C22.5312 3.11265 22.276 3.00663 22.0098 3.00635C21.7436 3.00607 21.4882 3.11155 21.2998 3.29959L17.1128 7.49359L15.8788 6.16959C15.6976 5.97558 15.4468 5.86148 15.1816 5.85238C14.9163 5.84329 14.6583 5.93994 14.4643 6.12109C14.2703 6.30223 14.1562 6.55302 14.1471 6.81829C14.138 7.08356 14.2346 7.34158 14.4158 7.53559L15.7328 8.94559Z" fill="#518950"/>
</g>
<defs>
<clipPath id="clip0_1684_8149">
<rect width="24" height="24" fill="white"/>
</clipPath>
</defs>
</svg>
