<svg width="1282" height="604" viewBox="0 0 1282 604" fill="none" xmlns="http://www.w3.org/2000/svg">
<g opacity="0.3">
<path d="M0 365.804V483.264H211.428V594.012H357.414V483.264H409.432V370.838H357.414V11.746H187.936L0 365.804ZM216.462 370.838H117.46L214.784 172.834H216.462V370.838Z" fill="#D9D7D4"/>
<path d="M594.458 401.042V204.716C594.458 162.766 598.093 134.52 605.365 119.977C612.636 104.875 624.382 97.324 640.603 97.324C656.823 97.324 668.569 104.875 675.841 119.977C683.112 134.52 686.748 162.766 686.748 204.716V401.042C686.748 442.992 683.112 471.518 675.841 486.62C668.569 501.163 656.823 508.434 640.603 508.434C624.382 508.434 612.636 501.163 605.365 486.62C598.093 471.518 594.458 442.992 594.458 401.042ZM438.404 302.879C438.404 363.287 442.319 413.068 450.15 452.221C458.54 490.815 470.845 521.578 487.066 544.511C503.846 566.884 524.821 582.266 549.991 590.656C575.72 599.046 605.924 603.241 640.603 603.241C675.281 603.241 705.206 599.046 730.376 590.656C756.105 582.266 777.08 566.884 793.301 544.511C810.081 521.578 822.386 490.815 830.217 452.221C838.607 413.068 842.802 363.287 842.802 302.879C842.802 243.03 838.607 193.529 830.217 154.376C822.386 115.223 810.081 84.1796 793.301 61.247C777.08 38.3143 756.105 22.3733 730.376 13.424C705.206 4.47466 675.281 0 640.603 0C605.924 0 575.72 4.47466 549.991 13.424C524.821 22.3733 503.846 38.3143 487.066 61.247C470.845 84.1796 458.54 115.223 450.15 154.376C442.319 193.529 438.404 243.03 438.404 302.879Z" fill="#D9D7D4"/>
<path d="M871.773 365.804V483.264H1083.2V594.012H1229.19V483.264H1281.21V370.838H1229.19V11.746H1059.71L871.773 365.804ZM1088.24 370.838H989.233L1086.56 172.834H1088.24V370.838Z" fill="#D9D7D4"/>
</g>
</svg>
