<svg width="1440" height="1447" viewBox="0 0 1440 1447" fill="none" xmlns="http://www.w3.org/2000/svg">
<g opacity="0.2" filter="url(#filter0_f_389_13843)">
<path d="M918.896 1019.13C1062.64 1058.52 1171 921.613 1171 784.71C1171 645.182 965.336 497.778 918.896 495.152C872.456 492.527 690.012 524.033 635.832 579.544C581.651 635.055 534.659 616.301 507.568 721.698C480.478 827.094 674.532 842.847 767.412 853.349C860.293 863.851 775.152 979.749 918.896 1019.13Z" fill="#D74E8F"/>
</g>
<g opacity="0.3" filter="url(#filter1_f_389_13843)">
<path d="M670.896 1024.13C814.639 1063.52 923 926.613 923 789.71C923 650.182 717.336 502.778 670.896 500.152C624.456 497.527 442.012 529.033 387.832 584.544C333.651 640.055 286.659 621.301 259.568 726.698C232.478 832.094 426.532 847.847 519.412 858.349C612.293 868.851 527.152 984.749 670.896 1024.13Z" fill="#669E65"/>
</g>
<g opacity="0.3" filter="url(#filter2_f_389_13843)">
<path d="M607.026 778.769C651.622 1030.84 519.2 987.319 447.415 934.049H91.0302C-192.934 934.049 11.4631 351.1 21.945 285.106C32.4269 219.112 153.445 92.9463 139.628 402.86C125.811 712.774 551.281 463.679 607.026 778.769Z" fill="#FFC46B"/>
</g>
<g opacity="0.2" filter="url(#filter3_f_389_13843)">
<path d="M1243.1 1183.2C1435.19 1239.42 1580 1043.99 1580 848.56C1580 649.384 1305.16 438.965 1243.1 435.217C1181.04 431.469 937.238 476.444 864.835 555.686C792.432 634.928 729.634 608.157 693.432 758.61C657.231 909.062 916.552 931.55 1040.67 946.542C1164.79 961.533 1051.01 1126.98 1243.1 1183.2Z" fill="#7D99FE"/>
</g>
<defs>
<filter id="filter0_f_389_13843" x="251" y="241" width="1174" height="1039" filterUnits="userSpaceOnUse" color-interpolation-filters="sRGB">
<feFlood flood-opacity="0" result="BackgroundImageFix"/>
<feBlend mode="normal" in="SourceGraphic" in2="BackgroundImageFix" result="shape"/>
<feGaussianBlur stdDeviation="127" result="effect1_foregroundBlur_389_13843"/>
</filter>
<filter id="filter1_f_389_13843" x="3" y="246" width="1174" height="1039" filterUnits="userSpaceOnUse" color-interpolation-filters="sRGB">
<feFlood flood-opacity="0" result="BackgroundImageFix"/>
<feBlend mode="normal" in="SourceGraphic" in2="BackgroundImageFix" result="shape"/>
<feGaussianBlur stdDeviation="127" result="effect1_foregroundBlur_389_13843"/>
</filter>
<filter id="filter2_f_389_13843" x="-313" y="-51" width="1183" height="1280" filterUnits="userSpaceOnUse" color-interpolation-filters="sRGB">
<feFlood flood-opacity="0" result="BackgroundImageFix"/>
<feBlend mode="normal" in="SourceGraphic" in2="BackgroundImageFix" result="shape"/>
<feGaussianBlur stdDeviation="127" result="effect1_foregroundBlur_389_13843"/>
</filter>
<filter id="filter3_f_389_13843" x="436" y="181" width="1398" height="1266" filterUnits="userSpaceOnUse" color-interpolation-filters="sRGB">
<feFlood flood-opacity="0" result="BackgroundImageFix"/>
<feBlend mode="normal" in="SourceGraphic" in2="BackgroundImageFix" result="shape"/>
<feGaussianBlur stdDeviation="127" result="effect1_foregroundBlur_389_13843"/>
</filter>
</defs>
</svg>
